<svg xmlns="http://www.w3.org/2000/svg" id="_0156_data_collecting" class="illustrations_image" data-imageid="data-collection-33" imageName="Data Collection" viewBox="0 0 500 500" style="width:268px"><defs><style>.cls-1_data-collection-33{fill:#fff}.cls-2_data-collection-33{fill:#f4a28c}.cls-3_data-collection-33{opacity:.46;fill:none}.cls-4_data-collection-33,.cls-5_data-collection-33,.cls-6_data-collection-33{fill:none}.cls-7_data-collection-33{fill:#a5a5a5}.cls-8_data-collection-33{fill:#e6e6e6}.cls-4_data-collection-33{opacity:.03}.cls-5_data-collection-33{opacity:.08}.cls-6_data-collection-33{opacity:.12}.cls-9_data-collection-33{fill:#24285b}.cls-10_data-collection-33{fill:#000001}.cls-11_data-collection-33{fill:#ffd200}.cls-12_data-collection-33{fill:#68e1fd}</style></defs><g id="data_data-collection-33"><path d="m261.39,181.73s16.82-10.58,45.75,12.54c28.94,23.13,37.1-37.75,69.01-23.63,31.91,14.11,9.65,36.41,55.65,40.1s49.84,13.26,47.55,48.55c-2.29,35.28-40.84,26.31-30.47,60.85,10.37,34.54-20.79,41.96-46.02,39.73-25.23-2.22-28.2-44.56-61.59-31.55-33.39,13-44.02-14.49-79.89,8.53l-70.63-20.85-55.92-29.04-8.45-61.69,56.57-29.04,78.43-14.49Z" class="cls-9_data-collection-33"/><circle cx="338.74" cy="189.56" r="13.73" class="cls-12_data-collection-33 targetColor" style="fill:#68e1fd"/><circle cx="461.34" cy="294.57" r="13.73" class="cls-12_data-collection-33 targetColor" style="fill:#68e1fd"/><circle cx="328.92" cy="328.35" r="9.67" class="cls-12_data-collection-33 targetColor" style="fill:#68e1fd"/><circle cx="386.88" cy="228.14" r="4.84" class="cls-12_data-collection-33 targetColor" style="fill:#68e1fd"/><circle cx="420.21" cy="262.29" r="8.25" class="cls-1_data-collection-33"/><circle cx="285" cy="218.4" r="4.87" class="cls-1_data-collection-33"/><circle cx="391.72" cy="304.94" r="4.87" class="cls-1_data-collection-33"/><circle cx="345.7" cy="261.68" r="12.98" class="cls-11_data-collection-33"/><circle cx="458.45" cy="216.23" r="9.13" class="cls-11_data-collection-33"/><circle cx="421.09" cy="355.56" r="9.13" class="cls-11_data-collection-33"/><circle cx="283.79" cy="283.22" r="4.57" class="cls-11_data-collection-33"/></g><g id="sd_data-collection-33" class="cls-4_data-collection-33"><ellipse cx="251.25" cy="441.14" class="cls-10_data-collection-33" rx="215.11" ry="16.8"/></g><g id="person_data-collection-33"><path d="m105.6,431.72s1.59,5.29,6.26,5.94c4.67.65,5.65,5.3,1.37,6.27-4.28.97-14.87-5.03-14.87-5.03l.85-8.57,6.39,1.39Z" class="cls-12_data-collection-33 targetColor" style="fill:#68e1fd"/><path d="m202.15,431.72s1.59,5.29,6.26,5.94c4.67.65,5.65,5.3,1.37,6.27-4.28.97-14.87-5.03-14.87-5.03l.85-8.57,6.39,1.39Z" class="cls-12_data-collection-33 targetColor" style="fill:#68e1fd"/><path d="m87.06,320.68l15.06,28.1c6.45,12.04,8.08,26.09,4.56,39.29l-11.77,44.15h13.91l20.36-49.4c4.13-10.02,5.51-20.96,4-31.69l-1.92-13.66c-.5-3.52,4.24-5.13,6-2.04l54.8,96.79h14.27l-56.98-129.67s-17.1-5.3-62.28,18.13Z" class="cls-9_data-collection-33"/><path d="m90.19,200.06s35.97-3.75,45.28,37.24c9.31,40.99,54.21,65.25,54.21,65.25l-66.09-24.02-33.4-78.47Z" class="cls-12_data-collection-33 targetColor" style="fill:#68e1fd"/><g class="cls-5_data-collection-33"><path d="m90.19,200.06s35.97-3.75,45.28,37.24c9.31,40.99,54.21,65.25,54.21,65.25l-66.09-24.02-33.4-78.47Z" class="cls-10_data-collection-33"/></g><path d="m73.52,165.82s1.56,8.3.7,14.01c-.35,2.31-2.54,3.93-4.85,3.55-2.87-.47-6.61-1.94-7.98-6.29l-3.24-7.09s-1.87-4.51,2.52-8.39c4.4-3.88,12.15-.89,12.85,4.21Z" class="cls-2_data-collection-33"/><polygon points="58.65 174.32 59.96 201.96 75.14 200.15 68.09 180.77 58.65 174.32" class="cls-2_data-collection-33"/><path d="m57.72,176.62h0c.03.37.31.65.68.71,1.3.19,4.33.21,6.04-3.09,2.23-4.29-.76-7.69-.76-7.69,3.65.31,6.35.05,7.8-.17.87-.13,1.73-.36,2.51-.77l1.54-6.52s2.84-6.65-1.01-7.65c-3.85-1-5.19,3.4-8.49.62-3.3-2.78-4.09-3.85-7.06-1.9-2.97,1.95.81,4.09-4.29,4.54-5.1.45-5.02,2.56-4.85,4.89.04.58.5,1.3,1.17,2.04,3.75,4.2,6.26,9.37,6.74,14.98Z" class="cls-9_data-collection-33"/><path d="m65.31,173.9s-.38-3.23-2.79-2.74c-2.41.49-1.88,5.16,1.47,5.27l1.32-2.53Z" class="cls-2_data-collection-33"/><path d="m74.23,171.1l2.66,3c.66.74.32,1.92-.63,2.19l-3.15.92,1.12-6.12Z" class="cls-2_data-collection-33"/><path d="m59.96,201.96l15.18-1.81s39.19-7.57,49.54,31.38c10.35,38.95,10.79,71.45,10.79,71.45l-48.41,17.7s-126.7-86.29-27.1-118.72Z" class="cls-12_data-collection-33 targetColor" style="fill:#68e1fd"/><g class="cls-5_data-collection-33"><path d="m58.65,221.63s18.65,48.02,74.42,50.25l-6.25,34.27-39.76,14.53s-53.99-38.5-63.66-70.98l35.26-28.08Z" class="cls-10_data-collection-33"/></g><path d="m292.14,344.18h-72.81c-54.51,0-98.85-39.23-98.85-87.44s44.34-87.44,98.85-87.44h72.81v37.68h-72.81c-33.73,0-61.17,22.32-61.17,49.76s27.44,49.76,61.17,49.76h72.81v37.68Z" class="cls-7_data-collection-33"/><rect width="51.71" height="37.68" x="240.43" y="169.3" class="cls-8_data-collection-33"/><rect width="51.71" height="37.68" x="240.43" y="306.5" class="cls-8_data-collection-33"/><path d="m63.91,230.16c-9.65-26.64-50.43-13.89-42.83,13.4,2.15,7.7,7.45,16.5,17.78,26.26,41.33,39.05,90.08,45.72,130.8,24.75l-6.69-9.88s-71.39,12.89-97.04-46.79c0,0-.41-3.3-2.02-7.75Z" class="cls-12_data-collection-33 targetColor" style="fill:#68e1fd"/><g class="cls-3_data-collection-33"><path d="m63.91,230.16c-9.65-26.64-50.43-13.89-42.83,13.4,2.15,7.7,7.45,16.5,17.78,26.26,41.33,39.05,90.08,45.72,130.8,24.75l-6.69-9.88s-71.39,12.89-97.04-46.79c0,0-.41-3.3-2.02-7.75Z" class="cls-1_data-collection-33"/></g><path d="m164.17,286.46s1.37-4.26,5.49-5.1,14.87,6.9,0,13.21l-5.49-8.11Z" class="cls-2_data-collection-33"/><path d="m182.47,296.42s9.13-2.31,9.57,4.84-10.64,2.97-9.57-4.84Z" class="cls-2_data-collection-33"/></g><g id="check_data-collection-33"><polygon points="32.34 61.27 32.34 95.18 54.25 95.18 59.05 108.68 64.71 95.18 86.62 95.18 86.62 61.27 32.34 61.27" class="cls-8_data-collection-33"/><g class="cls-6_data-collection-33"><path d="m56.74,85.8s-.05,0-.07,0c-.5-.02-.96-.26-1.27-.65l-5.73-7.37c-.57-.74-.44-1.8.3-2.38.74-.58,1.8-.44,2.38.3l4.5,5.8,11.11-12c.63-.69,1.71-.73,2.4-.09.69.64.73,1.71.09,2.4l-12.47,13.47c-.32.35-.77.54-1.24.54Z" class="cls-10_data-collection-33"/></g></g><g id="move_data-collection-33"><rect width="232.26" height="20.11" x="176.45" y="64.86" class="cls-7_data-collection-33" transform="translate(585.15 149.83) rotate(180)"/><polygon points="130.49 74.92 187.4 107.77 187.4 42.06 130.49 74.92" class="cls-7_data-collection-33"/></g></svg>