<svg xmlns="http://www.w3.org/2000/svg" class="iconAboveSlogan" viewBox="0 0 300 300"><rect width="300" height="300" x="0" y="0" fill="#156EAC" class="logo-background-square"/><g id="c4d4dd70-793c-4ed2-92f1-7647ac7c074a" fill="#fff"><path d="M3.49 7.57L3.49 1.94L5.37 1.94L5.37 5.15L5.18 5.15L5.18 8.65L5.37 8.65L5.37 11.46L0.86 11.46L0.86 10.86L0 10.86L0 9.75L0.52 9.75L0.52 9.56L0 9.56L0 9.31L1.85 9.31L1.85 9.99L3.51 9.99L3.51 9.05Q3.51 8.57 3.49 7.72L3.49 7.72L2.04 7.72L2.04 7.57L3.49 7.57ZM4.06 7.57L3.51 7.57L3.51 7.72L4.06 7.72L4.06 7.57ZM1.90 11.73L1.90 11.60L4.30 11.60L4.30 11.73L1.90 11.73ZM9.52 1.95L9.52 1.95Q11.62 1.95 12.28 3.42L12.28 3.42Q12.66 4.14 12.66 6.19L12.66 6.19L12.66 6.23L11.94 6.23L11.94 6.56L12.66 6.56L12.66 10.10L12.18 10.10L12.18 11.37L11.23 11.37L11.23 11.73L7.91 11.73L7.91 11.37L7.51 11.37L7.51 10.10L6.65 10.10L6.65 9.10L7.16 9.10L7.16 8.57L6.65 8.57L6.65 9.10L5.44 9.10L5.44 8.57L6.36 8.57Q6.34 7.38 6.34 6.74L6.34 6.74L6.34 5.91Q6.34 3.58 7.13 2.80L7.13 2.80Q7.85 1.95 9.52 1.95ZM8.32 5.32L8.32 5.32L8.34 5.32L8.32 5.35L8.32 6.23L7.59 6.23L7.59 6.56L8.32 6.56Q8.31 8.67 8.31 9.75L8.31 9.75L8.31 10.10L9.94 10.10L9.94 9.56L10.69 9.56L10.69 9.54Q10.69 8.54 10.68 6.75L10.68 6.75Q10.68 6.68 10.69 6.38L10.69 6.38Q10.69 4.45 10.47 4.01L10.47 4.01Q10.23 3.58 9.61 3.58L9.61 3.58L9.37 3.58Q8.63 3.58 8.45 4.24L8.45 4.24Q8.37 4.56 8.32 5.32ZM12.66 6.56L12.66 6.23L13.84 6.23L13.84 6.56L12.66 6.56ZM13.75 2.02L13.75 2.02L16.51 2.02Q18.35 2.02 18.85 2.95L18.85 2.95Q19.13 3.44 19.13 4.28L19.13 4.28L19.13 4.96Q19.13 5.91 18.31 6.50L18.31 6.50Q18.59 6.55 19.02 6.93L19.02 6.93L19.24 6.93Q19.64 7.36 19.76 7.75L19.76 7.75Q19.80 7.88 19.80 7.90L19.80 7.90L20.06 7.90L20.06 8.06L19.18 8.06L19.18 7.90L17.38 7.90L17.38 7.38L15.60 7.38L15.60 10.21L16.71 10.21L16.71 10.01L17.38 10.01L17.38 8.06L19.18 8.06L19.18 9.78L19.38 9.78L19.38 10.85L18.79 10.85L18.79 11.10L19.38 11.10L19.38 11.55L17.09 11.55L17.09 11.73L14.59 11.73L14.59 11.55L14.04 11.55L14.04 10.06L14.79 10.06L14.79 9.66L14.04 9.66Q14.02 8.52 14.02 7.96L14.02 7.96L14.02 7.25L13.39 7.25L13.39 7.07L14.02 7.07L14.02 6.69L13.73 6.69L13.73 2.06Q13.73 2.02 13.75 2.02ZM15.95 3.66L15.63 3.66L15.63 6.07L16.04 6.07Q16.78 6.07 17.01 5.82L17.01 5.82Q17.24 5.63 17.24 4.76L17.24 4.76L17.24 4.72Q17.24 3.99 17.01 3.83L17.01 3.83Q16.86 3.66 15.95 3.66L15.95 3.66ZM14.94 7.07L14.04 7.07L14.04 7.25L14.94 7.25L14.94 7.07ZM16.46 8.06L16.46 7.90L17.38 7.90L17.38 8.06L16.46 8.06ZM23.52 1.96L23.52 1.96Q25.15 1.96 25.70 3.01L25.70 3.01Q26.09 3.80 26.09 4.56L26.09 4.56L26.07 4.56Q24.96 4.66 24.55 4.66L24.55 4.66Q24.55 4.12 24.21 3.75L24.21 3.75Q23.90 3.57 23.63 3.57L23.63 3.57L23.36 3.57Q22.66 3.57 22.51 4.11L22.51 4.11Q22.48 4.27 22.48 4.35L22.48 4.35L22.48 4.50Q22.48 5.26 23.28 5.61L23.28 5.61Q23.35 5.67 24.40 6.12L24.40 6.12Q24.96 6.38 25.44 6.76L25.44 6.76L25.44 6.77L23.73 6.77L23.73 6.97L25.99 6.97L25.99 7.24L26.28 7.24L26.28 10.21L25.72 10.21L25.72 11.73L21.37 11.73L21.37 10.21L20.34 10.21L20.34 9.18L20.92 9.18L20.92 8.83L20.34 8.83L20.34 8.59L22.33 8.59L22.33 10.21L24.37 10.21L24.37 7.77L22.85 7.77L22.85 6.97L20.95 6.97L20.95 6.77L21.87 6.77L21.87 6.76Q20.67 5.96 20.67 4.50L20.67 4.50L20.67 4.37Q20.67 3.14 21.42 2.51L21.42 2.51Q22.10 1.96 23.52 1.96ZM25.99 6.97L25.99 6.77L26.68 6.77L26.68 6.97L25.99 6.97ZM19.69 9.18L19.69 8.83L20.34 8.83L20.34 9.18L19.69 9.18Z" transform="matrix(7.628162680976374,0,0,7.628162680976374,48.24030867180993,153.67026911938038)"/></g><g id="f3e15679-741e-49d3-b275-c3ce75ce7835" fill="#F6575E" stroke="none"><path d="M16 23.787L8.102 16 16 8.213 23.898 16 16 23.787zM9.525 16L16 22.383 22.475 16 16 9.617 9.525 16z" transform="matrix(3.5007258845110574,0,0,3.5007258845110574,93.98838878698807,39.2228388436229)"/><path d="M15.915 31.778L-.005 16.084 16.085.222l15.92 15.694-16.09 15.862zM1.419 16.084l14.496 14.29 14.666-14.458-14.496-14.29L1.419 16.084z" transform="matrix(3.5007258845110574,0,0,3.5007258845110574,93.98838878698807,39.2228388436229)"/><path d="M15.5.924h1v30.152h-1z" transform="matrix(3.5007258845110574,0,0,3.5007258845110574,93.98838878698807,39.2228388436229)"/></g><g id="1481368a-95a2-4eed-9809-0c42b8b81284" fill="#fff"><path d="M6.66 4.83L6.66 4.83Q7.20 4.83 7.77 5.03Q8.34 5.22 8.78 5.53L8.78 5.53Q8.64 6.24 8.52 6.82Q8.40 7.39 8.30 7.86Q8.20 8.33 8.11 8.71Q8.02 9.10 7.94 9.44L7.94 9.44Q7.60 10.70 7.25 11.71Q6.89 12.73 6.49 13.54Q6.09 14.35 5.65 14.98Q5.21 15.61 4.70 16.09L4.70 16.09Q4.21 16.55 3.72 16.84Q3.23 17.14 2.81 17.22L2.81 17.22Q2.25 17.22 1.78 17.09Q1.30 16.97 0.96 16.75Q0.62 16.53 0.43 16.23Q0.24 15.93 0.24 15.57L0.24 15.57Q0.24 15.18 0.43 14.58Q0.63 13.99 1.04 13.17L1.04 13.17Q1.20 13.19 1.43 13.26Q1.65 13.33 1.88 13.43Q2.10 13.52 2.28 13.64Q2.46 13.76 2.55 13.87L2.55 13.87Q2.10 14.34 1.82 14.89Q1.54 15.44 1.54 15.85L1.54 15.85Q1.54 16.09 1.63 16.27Q1.72 16.46 1.95 16.62L1.95 16.62Q2.80 16.30 3.61 15.42Q4.42 14.55 5.05 13.24L5.05 13.24Q5.43 12.47 5.74 11.48Q6.05 10.49 6.27 9.48Q6.48 8.48 6.60 7.57Q6.72 6.65 6.72 6.02L6.72 6.02Q6.72 5.92 6.71 5.75Q6.71 5.57 6.70 5.38Q6.69 5.19 6.68 5.04Q6.66 4.89 6.66 4.83ZM22.04 4.98L22.04 4.98Q22.30 5.10 22.58 5.27Q22.86 5.45 23.10 5.63Q23.34 5.81 23.50 5.98Q23.66 6.16 23.67 6.27L23.67 6.27Q23.44 6.22 23.20 6.20Q22.96 6.17 22.76 6.17L22.76 6.17Q22.13 6.17 21.51 6.48Q20.89 6.79 20.33 7.32Q19.77 7.85 19.29 8.57Q18.82 9.28 18.47 10.09Q18.13 10.91 17.93 11.77Q17.74 12.64 17.74 13.48L17.74 13.48Q17.74 14.57 18.10 15.11Q18.47 15.64 19.17 15.64L19.17 15.64Q19.50 15.64 19.89 15.51Q20.29 15.37 20.69 15.13Q21.10 14.90 21.49 14.56Q21.88 14.22 22.22 13.82L22.22 13.82Q22.71 13.23 23.10 12.48Q23.49 11.73 23.77 10.89Q24.04 10.05 24.18 9.16Q24.33 8.27 24.33 7.42L24.33 7.42Q24.33 7.08 24.32 6.85Q24.30 6.62 24.28 6.46Q24.26 6.30 24.25 6.20Q24.23 6.10 24.22 6.03L24.22 6.03Q24.39 6.12 24.59 6.24Q24.79 6.36 24.97 6.59Q25.14 6.82 25.26 7.20Q25.38 7.57 25.38 8.18L25.38 8.18Q25.38 9.16 25.15 10.10Q24.92 11.05 24.51 11.90Q24.09 12.75 23.53 13.50Q22.97 14.24 22.33 14.80L22.33 14.80Q21.49 15.54 20.54 15.95Q19.59 16.35 18.70 16.35L18.70 16.35Q17.42 16.35 16.74 15.53Q16.06 14.71 16.06 13.12L16.06 13.12Q16.06 12.26 16.25 11.31Q16.44 10.36 16.78 9.44Q17.12 8.51 17.60 7.68Q18.07 6.85 18.64 6.21Q19.21 5.57 19.86 5.19Q20.51 4.82 21.20 4.82L21.20 4.82Q21.42 4.82 21.62 4.85Q21.81 4.89 22.04 4.98ZM42.35 7.46L42.35 7.46Q42.35 8.33 41.87 9.01Q41.40 9.69 40.57 10.14L40.57 10.14Q41.10 10.50 41.42 11.03Q41.73 11.55 41.73 12.18L41.73 12.18Q41.73 12.94 41.28 13.67Q40.82 14.41 40.07 14.97Q39.31 15.54 38.35 15.89Q37.38 16.24 36.37 16.24L36.37 16.24Q35.28 16.24 34.46 15.83Q33.64 15.41 33.18 14.66L33.18 14.66Q33.32 14.24 33.55 13.62Q33.78 12.99 34.06 12.30Q34.34 11.61 34.63 10.92Q34.92 10.23 35.17 9.69L35.17 9.69Q35.70 8.50 36.12 7.71Q36.54 6.93 36.89 6.47L36.89 6.47Q36.12 6.71 35.49 7.01Q34.86 7.31 34.57 7.59L34.57 7.59Q34.44 7.50 34.31 7.34Q34.17 7.17 34.05 6.96Q33.94 6.76 33.86 6.55Q33.78 6.34 33.77 6.17L33.77 6.17Q34.13 5.92 34.71 5.69Q35.29 5.46 35.98 5.29Q36.67 5.12 37.39 5.03Q38.11 4.93 38.77 4.93L38.77 4.93Q40.45 4.93 41.40 5.60Q42.35 6.27 42.35 7.46ZM37.02 10.81L37.02 10.81Q36.75 10.68 36.53 10.43L36.53 10.43Q36.20 11.14 35.92 11.83Q35.63 12.52 35.41 13.10Q35.18 13.69 35.04 14.13Q34.90 14.56 34.89 14.76L34.89 14.76Q35.08 14.87 35.36 14.92Q35.63 14.98 36.04 14.98L36.04 14.98Q36.99 14.98 37.86 14.71Q38.72 14.45 39.38 13.99Q40.04 13.54 40.43 12.95Q40.82 12.36 40.82 11.72L40.82 11.72Q40.82 10.79 40.03 10.39L40.03 10.39Q38.93 10.84 37.56 10.84L37.56 10.84Q37.37 10.84 37.26 10.84Q37.16 10.84 37.02 10.81ZM39.73 5.95L39.73 5.95Q39.44 5.95 39.11 5.98Q38.78 6.02 38.42 6.09L38.42 6.09Q38.47 6.15 38.51 6.21Q38.54 6.27 38.57 6.34L38.57 6.34Q38.44 6.51 38.26 6.83Q38.08 7.15 37.86 7.58Q37.63 8.01 37.39 8.53Q37.14 9.04 36.89 9.59L36.89 9.59Q37.13 9.53 37.47 9.50Q37.81 9.46 38.15 9.46L38.15 9.46Q38.33 9.46 38.51 9.48Q38.68 9.49 38.85 9.52L38.85 9.52Q39.52 9.41 40.06 9.19Q40.60 8.97 40.99 8.69Q41.38 8.40 41.59 8.05Q41.80 7.70 41.80 7.31L41.80 7.31Q41.80 6.64 41.27 6.29Q40.74 5.95 39.73 5.95ZM69.23 5.74L69.23 5.74Q69.27 5.98 69.29 6.07Q69.31 6.16 69.31 6.31L69.31 6.31Q69.31 6.78 69.11 7.18Q68.91 7.57 68.56 7.74L68.56 7.74Q68.28 7.36 67.87 7.09Q67.47 6.82 66.98 6.64Q66.50 6.47 65.98 6.38Q65.46 6.30 64.97 6.30L64.97 6.30Q64.48 6.30 64.06 6.38Q63.63 6.45 63.30 6.59Q62.97 6.72 62.78 6.92Q62.59 7.11 62.59 7.36L62.59 7.36Q62.64 7.67 62.97 7.99Q63.31 8.30 63.80 8.60Q64.29 8.90 64.88 9.20Q65.48 9.49 66.05 9.76L66.05 9.76Q66.77 10.09 67.28 10.38Q67.80 10.67 68.14 11.01Q68.47 11.35 68.64 11.79Q68.81 12.22 68.81 12.84L68.81 12.84Q68.81 13.55 68.57 14.18Q68.33 14.80 67.88 15.26Q67.42 15.72 66.78 15.98Q66.14 16.24 65.34 16.24L65.34 16.24Q64.55 16.24 63.64 16.00Q62.73 15.76 61.94 15.35Q61.15 14.94 60.63 14.40Q60.10 13.86 60.10 13.26L60.10 13.26Q60.10 12.98 60.26 12.54Q60.42 12.11 60.84 11.63L60.84 11.63Q60.89 12.05 61.30 12.63Q61.71 13.20 62.54 13.69L62.54 13.69Q63.31 14.14 64.13 14.34Q64.95 14.55 65.66 14.55L65.66 14.55Q66.44 14.55 66.93 14.35Q67.42 14.15 67.70 13.88Q67.98 13.61 68.10 13.33Q68.21 13.05 68.22 12.88L68.22 12.88Q68.21 12.60 67.96 12.34Q67.72 12.08 67.31 11.84Q66.89 11.59 66.35 11.34Q65.80 11.09 65.21 10.84L65.21 10.84Q64.33 10.44 63.69 10.10Q63.06 9.76 62.64 9.40Q62.23 9.04 62.04 8.65Q61.85 8.26 61.85 7.76L61.85 7.76Q61.85 6.97 62.33 6.27Q62.80 5.57 63.70 5.21L63.70 5.21Q64.15 5.01 64.66 4.93Q65.17 4.84 65.66 4.84L65.66 4.84Q66.58 4.84 67.47 5.10Q68.35 5.35 69.23 5.74ZM82.71 9.21L82.71 9.21Q83.17 9.21 83.43 9.46Q83.69 9.72 83.69 10.16L83.69 10.16Q83.69 10.28 83.67 10.39Q83.65 10.51 83.62 10.60L83.62 10.60Q83.44 10.57 83.22 10.55Q82.99 10.53 82.68 10.53L82.68 10.53Q82.08 10.53 81.47 10.63Q80.85 10.74 80.29 10.81L80.29 10.81Q79.97 11.55 79.70 12.24Q79.44 12.94 79.25 13.51Q79.06 14.08 78.95 14.50Q78.85 14.92 78.83 15.13L78.83 15.13Q79.97 14.90 81.12 14.73Q82.28 14.56 83.55 14.48L83.55 14.48Q83.71 14.71 83.81 14.99Q83.92 15.27 83.92 15.60L83.92 15.60Q83.92 15.68 83.92 15.78Q83.92 15.88 83.89 15.97L83.89 15.97Q83.50 15.96 83.06 15.95Q82.63 15.95 81.93 15.95L81.93 15.95Q81.47 15.95 81.05 15.97Q80.64 15.99 80.22 16.03Q79.80 16.07 79.33 16.14Q78.86 16.21 78.27 16.31L78.27 16.31Q77.63 16.06 77.03 15.08L77.03 15.08Q77.27 14.57 77.69 13.54Q78.12 12.52 78.78 10.79L78.78 10.79Q78.15 10.60 77.95 10.09L77.95 10.09Q78.02 10.02 78.36 9.92Q78.69 9.81 79.18 9.70L79.18 9.70Q79.39 9.16 79.54 8.75Q79.69 8.34 79.80 7.99Q79.91 7.63 80.00 7.29Q80.09 6.94 80.18 6.54L80.18 6.54Q79.69 6.51 79.41 6.27Q79.13 6.02 79.13 5.63L79.13 5.63Q79.13 5.52 79.16 5.36Q79.20 5.21 79.24 5.10L79.24 5.10Q79.52 5.14 79.78 5.15Q80.04 5.17 80.46 5.17L80.46 5.17Q81.34 5.17 82.11 5.12Q82.88 5.07 83.50 5.01Q84.13 4.96 84.57 4.91Q85.02 4.86 85.26 4.86L85.26 4.86Q85.58 4.86 85.83 5.19Q86.09 5.53 86.21 6.15L86.21 6.15Q85.78 6.10 85.51 6.09Q85.23 6.08 85.02 6.08L85.02 6.08Q84.25 6.08 83.62 6.15Q82.98 6.23 82.39 6.31L82.39 6.31Q82.31 6.44 82.20 6.64Q82.10 6.83 81.93 7.18Q81.76 7.53 81.52 8.06Q81.27 8.60 80.92 9.39L80.92 9.39Q81.45 9.31 81.92 9.26Q82.39 9.21 82.71 9.21ZM98.24 9.21L98.24 9.21Q98.70 9.21 98.96 9.46Q99.22 9.72 99.22 10.16L99.22 10.16Q99.22 10.28 99.20 10.39Q99.18 10.51 99.15 10.60L99.15 10.60Q98.97 10.57 98.74 10.55Q98.52 10.53 98.21 10.53L98.21 10.53Q97.61 10.53 96.99 10.63Q96.38 10.74 95.82 10.81L95.82 10.81Q95.49 11.55 95.23 12.24Q94.96 12.94 94.77 13.51Q94.58 14.08 94.48 14.50Q94.37 14.92 94.36 15.13L94.36 15.13Q95.49 14.90 96.65 14.73Q97.80 14.56 99.08 14.48L99.08 14.48Q99.23 14.71 99.34 14.99Q99.44 15.27 99.44 15.60L99.44 15.60Q99.44 15.68 99.44 15.78Q99.44 15.88 99.41 15.97L99.41 15.97Q99.02 15.96 98.59 15.95Q98.15 15.95 97.45 15.95L97.45 15.95Q96.99 15.95 96.58 15.97Q96.17 15.99 95.75 16.03Q95.33 16.07 94.86 16.14Q94.39 16.21 93.80 16.31L93.80 16.31Q93.16 16.06 92.55 15.08L92.55 15.08Q92.79 14.57 93.22 13.54Q93.65 12.52 94.30 10.79L94.30 10.79Q93.67 10.60 93.48 10.09L93.48 10.09Q93.55 10.02 93.88 9.92Q94.22 9.81 94.71 9.70L94.71 9.70Q94.92 9.16 95.07 8.75Q95.21 8.34 95.33 7.99Q95.44 7.63 95.53 7.29Q95.62 6.94 95.70 6.54L95.70 6.54Q95.21 6.51 94.93 6.27Q94.65 6.02 94.65 5.63L94.65 5.63Q94.65 5.52 94.69 5.36Q94.72 5.21 94.77 5.10L94.77 5.10Q95.05 5.14 95.31 5.15Q95.56 5.17 95.98 5.17L95.98 5.17Q96.87 5.17 97.64 5.12Q98.41 5.07 99.03 5.01Q99.65 4.96 100.10 4.91Q100.55 4.86 100.79 4.86L100.79 4.86Q101.11 4.86 101.36 5.19Q101.61 5.53 101.74 6.15L101.74 6.15Q101.30 6.10 101.03 6.09Q100.76 6.08 100.55 6.08L100.55 6.08Q99.78 6.08 99.14 6.15Q98.50 6.23 97.92 6.31L97.92 6.31Q97.83 6.44 97.73 6.64Q97.62 6.83 97.45 7.18Q97.29 7.53 97.04 8.06Q96.80 8.60 96.45 9.39L96.45 9.39Q96.98 9.31 97.45 9.26Q97.92 9.21 98.24 9.21ZM111.24 10.74L111.24 10.74Q112.11 9.45 112.96 8.37Q113.81 7.28 114.58 6.50Q115.35 5.71 115.99 5.28Q116.63 4.84 117.11 4.84L117.11 4.84Q117.29 4.84 117.51 4.98Q117.73 5.12 117.91 5.35Q118.10 5.57 118.23 5.83Q118.36 6.09 118.36 6.33L118.36 6.33Q117.49 6.61 116.66 7.06Q115.82 7.52 115.06 8.11Q114.30 8.71 113.60 9.44Q112.91 10.16 112.35 10.99L112.35 10.99Q112.57 11.56 112.90 12.21Q113.23 12.87 113.62 13.47Q114.02 14.08 114.46 14.60Q114.91 15.12 115.37 15.43L115.37 15.43Q115.30 15.58 115.14 15.72Q114.97 15.86 114.77 15.98Q114.58 16.10 114.36 16.17Q114.14 16.24 113.96 16.24L113.96 16.24Q113.60 16.24 113.29 15.90Q112.98 15.55 112.66 14.86Q112.35 14.17 112.01 13.14Q111.66 12.11 111.24 10.74ZM109.13 16.31L109.13 16.31Q108.60 16.18 108.25 15.87Q107.90 15.55 107.60 15.08L107.60 15.08Q107.73 14.81 107.91 14.38Q108.08 13.94 108.33 13.31Q108.58 12.67 108.93 11.78Q109.28 10.89 109.75 9.70L109.75 9.70Q110.04 8.95 110.23 8.43Q110.42 7.91 110.55 7.41Q110.68 6.92 110.81 6.31Q110.94 5.71 111.10 4.79L111.10 4.79Q111.69 4.90 112.17 5.31Q112.66 5.71 113.01 6.29L113.01 6.29Q112.85 6.48 112.65 6.88Q112.45 7.28 112.20 7.84Q111.94 8.40 111.64 9.09Q111.33 9.77 110.99 10.54L110.99 10.54Q110.24 12.22 109.80 13.62Q109.37 15.01 109.13 16.31ZM124.38 14.38L124.38 14.38Q124.38 13.87 124.54 13.07Q124.70 12.26 124.96 11.33Q125.22 10.40 125.55 9.43Q125.89 8.46 126.24 7.60Q126.59 6.75 126.92 6.10Q127.26 5.46 127.53 5.18L127.53 5.18Q127.67 5.19 127.90 5.29Q128.13 5.38 128.37 5.50Q128.60 5.63 128.80 5.78Q129.00 5.92 129.05 6.05L129.05 6.05Q128.65 6.41 128.25 7.15Q127.85 7.88 127.48 8.82Q127.11 9.76 126.78 10.80Q126.46 11.84 126.22 12.82Q125.99 13.80 125.85 14.64Q125.72 15.48 125.72 16.00L125.72 16.00Q125.72 16.24 125.76 16.30L125.76 16.30Q125.45 16.28 125.31 16.19Q125.17 16.10 125.10 16.00Q125.02 15.89 124.96 15.79Q124.89 15.68 124.77 15.62L124.77 15.62Q124.67 15.58 124.60 15.43Q124.53 15.27 124.48 15.09Q124.43 14.90 124.40 14.70Q124.38 14.50 124.38 14.38ZM136.61 16.24L136.61 16.24Q135.81 16.00 135.53 15.79Q135.25 15.57 135.25 15.19L135.25 15.19Q135.25 14.77 135.45 14.01Q135.65 13.24 135.96 12.31Q136.28 11.37 136.68 10.35Q137.09 9.32 137.51 8.39Q137.93 7.45 138.33 6.67Q138.73 5.89 139.03 5.46L139.03 5.46L138.94 4.87Q139.13 4.87 139.48 4.97Q139.83 5.07 140.19 5.21Q140.55 5.35 140.82 5.49Q141.09 5.64 141.12 5.74L141.12 5.74Q141.05 6.08 141.01 6.76Q140.97 7.43 140.97 8.20L140.97 8.20Q140.97 9.73 141.09 11.19Q141.20 12.66 141.64 14.17L141.64 14.17Q141.86 13.05 142.12 11.94Q142.38 10.82 142.66 9.81Q142.94 8.79 143.22 7.92Q143.50 7.06 143.76 6.40Q144.02 5.75 144.24 5.38Q144.47 5.01 144.65 4.98L144.65 4.98Q144.80 5.01 144.98 5.10Q145.17 5.19 145.33 5.32Q145.50 5.45 145.64 5.60Q145.78 5.75 145.87 5.91L145.87 5.91Q145.42 6.09 144.98 6.76Q144.54 7.43 144.14 8.39Q143.74 9.35 143.40 10.47Q143.05 11.59 142.79 12.68Q142.53 13.76 142.39 14.69Q142.24 15.61 142.23 16.17L142.23 16.17Q142.23 16.20 142.24 16.21L142.24 16.21Q142.20 16.23 142.15 16.23Q142.10 16.23 142.06 16.23L142.06 16.23Q141.41 16.23 140.92 16.07Q140.42 15.90 140.27 15.61L140.27 15.61Q139.97 14.43 139.78 13.34Q139.58 12.25 139.45 11.16Q139.31 10.07 139.24 8.95Q139.16 7.84 139.12 6.62L139.12 6.62Q138.85 7.04 138.56 7.72Q138.26 8.40 137.98 9.21Q137.70 10.02 137.44 10.92Q137.19 11.82 136.99 12.67Q136.79 13.52 136.68 14.29Q136.57 15.05 136.57 15.61L136.57 15.61Q136.57 15.90 136.58 16.03Q136.58 16.16 136.61 16.24ZM159.68 10.72L159.68 10.72Q160.05 10.72 160.26 10.98Q160.47 11.23 160.47 11.68L160.47 11.68Q160.47 11.79 160.45 11.91Q160.44 12.03 160.41 12.11L160.41 12.11Q160.12 12.04 159.77 12.03L159.77 12.03Q159.68 12.64 159.32 13.32Q158.96 14 158.44 14.60Q157.92 15.19 157.30 15.64Q156.69 16.09 156.09 16.24L156.09 16.24Q154.21 16.20 153.35 15.27Q152.49 14.34 152.49 12.36L152.49 12.36Q152.49 10.92 153.02 9.57Q153.55 8.22 154.43 7.17Q155.32 6.12 156.46 5.48Q157.60 4.84 158.83 4.84L158.83 4.84Q159.80 4.84 160.34 5.25Q160.87 5.66 160.87 6.40L160.87 6.40Q160.87 6.89 160.64 7.31Q160.41 7.73 159.88 8.22L159.88 8.22Q159.56 8.12 159.32 7.88Q159.08 7.63 159.03 7.31L159.03 7.31Q159.50 6.96 159.70 6.66Q159.89 6.37 159.89 5.96L159.89 5.96Q159.89 5.32 159.12 5.32L159.12 5.32Q158.49 5.32 157.77 5.79Q157.05 6.26 156.32 7.14L156.32 7.14Q155.29 8.39 154.81 9.71Q154.34 11.03 154.34 12.68L154.34 12.68Q154.34 13.30 154.46 13.80Q154.59 14.31 154.80 14.69Q155.01 15.06 155.30 15.29Q155.58 15.51 155.92 15.54L155.92 15.54Q156.37 15.44 156.81 15.09Q157.26 14.73 157.63 14.25Q158.00 13.76 158.26 13.21Q158.52 12.66 158.58 12.15L158.58 12.15Q158.19 12.24 157.83 12.31Q157.47 12.39 157.15 12.39L157.15 12.39Q156.73 12.39 156.42 12.18Q156.10 11.97 155.99 11.61L155.99 11.61Q156.24 11.47 156.72 11.31Q157.21 11.16 157.75 11.03Q158.30 10.89 158.82 10.81Q159.35 10.72 159.68 10.72ZM181.13 6.69L181.13 6.69Q180.57 6.69 180.27 6.38Q179.97 6.06 179.97 5.61L179.97 5.61Q179.97 5.50 180.00 5.35Q180.04 5.19 180.10 5.08L180.10 5.08Q180.28 5.17 180.63 5.20Q180.99 5.24 181.47 5.24L181.47 5.24Q182.18 5.24 183.09 5.17Q183.99 5.11 184.81 5.04Q185.64 4.97 186.27 4.91Q186.90 4.84 187.08 4.84L187.08 4.84Q187.60 4.84 187.83 5.23Q188.06 5.61 188.17 6.26L188.17 6.26Q187.81 6.23 187.45 6.21Q187.10 6.19 186.84 6.19L186.84 6.19Q186.40 6.19 185.94 6.22Q185.49 6.24 185.02 6.30L185.02 6.30Q184.83 6.71 184.59 7.26Q184.35 7.81 184.12 8.41Q183.89 9.02 183.68 9.61Q183.47 10.21 183.32 10.68L183.32 10.68Q183.01 11.61 182.78 12.39Q182.55 13.17 182.37 13.85Q182.20 14.53 182.07 15.15Q181.94 15.76 181.85 16.35L181.85 16.35Q180.91 16.21 180.28 15.18L180.28 15.18Q180.39 14.74 180.55 14.23Q180.71 13.72 180.93 13.07Q181.15 12.42 181.44 11.59Q181.73 10.77 182.11 9.72L182.11 9.72Q182.25 9.32 182.41 8.90Q182.56 8.47 182.71 8.05Q182.85 7.63 182.97 7.24Q183.09 6.85 183.18 6.52L183.18 6.52Q182.59 6.59 182.06 6.64Q181.54 6.69 181.13 6.69ZM200.05 4.98L200.05 4.98Q200.31 5.10 200.59 5.27Q200.87 5.45 201.11 5.63Q201.35 5.81 201.51 5.98Q201.67 6.16 201.68 6.27L201.68 6.27Q201.45 6.22 201.21 6.20Q200.97 6.17 200.77 6.17L200.77 6.17Q200.14 6.17 199.52 6.48Q198.90 6.79 198.34 7.32Q197.78 7.85 197.30 8.57Q196.83 9.28 196.48 10.09Q196.14 10.91 195.94 11.77Q195.75 12.64 195.75 13.48L195.75 13.48Q195.75 14.57 196.11 15.11Q196.48 15.64 197.18 15.64L197.18 15.64Q197.51 15.64 197.90 15.51Q198.30 15.37 198.70 15.13Q199.11 14.90 199.50 14.56Q199.89 14.22 200.23 13.82L200.23 13.82Q200.72 13.23 201.11 12.48Q201.50 11.73 201.78 10.89Q202.05 10.05 202.19 9.16Q202.34 8.27 202.34 7.42L202.34 7.42Q202.34 7.08 202.33 6.85Q202.31 6.62 202.29 6.46Q202.27 6.30 202.26 6.20Q202.24 6.10 202.23 6.03L202.23 6.03Q202.40 6.12 202.60 6.24Q202.80 6.36 202.98 6.59Q203.15 6.82 203.27 7.20Q203.39 7.57 203.39 8.18L203.39 8.18Q203.39 9.16 203.16 10.10Q202.93 11.05 202.52 11.90Q202.10 12.75 201.54 13.50Q200.98 14.24 200.34 14.80L200.34 14.80Q199.50 15.54 198.55 15.95Q197.60 16.35 196.71 16.35L196.71 16.35Q195.43 16.35 194.75 15.53Q194.07 14.71 194.07 13.12L194.07 13.12Q194.07 12.26 194.26 11.31Q194.45 10.36 194.79 9.44Q195.13 8.51 195.61 7.68Q196.08 6.85 196.65 6.21Q197.22 5.57 197.87 5.19Q198.52 4.82 199.21 4.82L199.21 4.82Q199.43 4.82 199.63 4.85Q199.82 4.89 200.05 4.98ZM217.17 4.98L217.17 4.98Q217.43 5.10 217.71 5.27Q217.99 5.45 218.23 5.63Q218.47 5.81 218.63 5.98Q218.79 6.16 218.81 6.27L218.81 6.27Q218.57 6.22 218.33 6.20Q218.09 6.17 217.90 6.17L217.90 6.17Q217.27 6.17 216.64 6.48Q216.02 6.79 215.46 7.32Q214.90 7.85 214.42 8.57Q213.95 9.28 213.61 10.09Q213.26 10.91 213.07 11.77Q212.87 12.64 212.87 13.48L212.87 13.48Q212.87 14.57 213.23 15.11Q213.60 15.64 214.30 15.64L214.30 15.64Q214.63 15.64 215.03 15.51Q215.42 15.37 215.82 15.13Q216.23 14.90 216.62 14.56Q217.01 14.22 217.35 13.82L217.35 13.82Q217.84 13.23 218.23 12.48Q218.62 11.73 218.90 10.89Q219.17 10.05 219.32 9.16Q219.46 8.27 219.46 7.42L219.46 7.42Q219.46 7.08 219.45 6.85Q219.44 6.62 219.42 6.46Q219.39 6.30 219.38 6.20Q219.37 6.10 219.35 6.03L219.35 6.03Q219.52 6.12 219.72 6.24Q219.93 6.36 220.10 6.59Q220.28 6.82 220.40 7.20Q220.51 7.57 220.51 8.18L220.51 8.18Q220.51 9.16 220.28 10.10Q220.05 11.05 219.64 11.90Q219.23 12.75 218.67 13.50Q218.11 14.24 217.46 14.80L217.46 14.80Q216.62 15.54 215.67 15.95Q214.72 16.35 213.84 16.35L213.84 16.35Q212.55 16.35 211.87 15.53Q211.19 14.71 211.19 13.12L211.19 13.12Q211.19 12.26 211.38 11.31Q211.57 10.36 211.91 9.44Q212.25 8.51 212.73 7.68Q213.21 6.85 213.77 6.21Q214.34 5.57 214.99 5.19Q215.64 4.82 216.33 4.82L216.33 4.82Q216.55 4.82 216.75 4.85Q216.94 4.89 217.17 4.98ZM233.04 14.38L233.04 14.38Q233.39 14.98 233.39 15.54L233.39 15.54Q233.39 15.67 233.37 15.77Q233.35 15.88 233.32 15.99L233.32 15.99Q233.09 15.96 232.83 15.95Q232.57 15.93 232.29 15.93L232.29 15.93Q231.95 15.93 231.61 15.95Q231.27 15.97 230.85 16.02Q230.43 16.06 229.91 16.13Q229.39 16.20 228.70 16.31L228.70 16.31Q228.38 16.20 228.06 15.87Q227.74 15.54 227.46 15.08L227.46 15.08Q227.60 14.77 227.81 14.31Q228.02 13.86 228.30 13.21Q228.58 12.56 228.92 11.68Q229.26 10.81 229.66 9.66L229.66 9.66Q229.91 8.90 230.09 8.33Q230.27 7.76 230.42 7.22Q230.57 6.68 230.71 6.09Q230.85 5.50 231.01 4.73L231.01 4.73Q231.57 4.84 231.99 5.14Q232.40 5.45 232.78 6.01L232.78 6.01Q232.67 6.19 232.48 6.59Q232.30 7 232.06 7.58Q231.81 8.16 231.52 8.90Q231.22 9.63 230.90 10.47L230.90 10.47Q230.59 11.30 230.30 12.03Q230.01 12.75 229.78 13.34Q229.54 13.93 229.40 14.35Q229.26 14.77 229.26 14.98L229.26 14.98Q229.49 14.97 229.67 14.95Q229.85 14.94 230.05 14.90Q230.24 14.87 230.48 14.82Q230.71 14.77 231.03 14.69L231.03 14.69Q231.31 14.62 231.55 14.57Q231.78 14.52 232.02 14.48Q232.25 14.45 232.49 14.43Q232.74 14.41 233.04 14.38ZM242.00 14.38L242.00 14.38Q242.00 13.87 242.17 13.07Q242.33 12.26 242.59 11.33Q242.84 10.40 243.18 9.43Q243.52 8.46 243.87 7.60Q244.22 6.75 244.55 6.10Q244.89 5.46 245.15 5.18L245.15 5.18Q245.29 5.19 245.53 5.29Q245.76 5.38 245.99 5.50Q246.23 5.63 246.43 5.78Q246.62 5.92 246.68 6.05L246.68 6.05Q246.27 6.41 245.88 7.15Q245.48 7.88 245.11 8.82Q244.73 9.76 244.41 10.80Q244.09 11.84 243.85 12.82Q243.61 13.80 243.48 14.64Q243.35 15.48 243.35 16.00L243.35 16.00Q243.35 16.24 243.39 16.30L243.39 16.30Q243.08 16.28 242.94 16.19Q242.80 16.10 242.73 16.00Q242.65 15.89 242.59 15.79Q242.52 15.68 242.40 15.62L242.40 15.62Q242.30 15.58 242.23 15.43Q242.16 15.27 242.11 15.09Q242.06 14.90 242.03 14.70Q242.00 14.50 242.00 14.38ZM254.24 16.24L254.24 16.24Q253.44 16.00 253.16 15.79Q252.88 15.57 252.88 15.19L252.88 15.19Q252.88 14.77 253.08 14.01Q253.27 13.24 253.59 12.31Q253.90 11.37 254.31 10.35Q254.72 9.32 255.14 8.39Q255.56 7.45 255.96 6.67Q256.35 5.89 256.66 5.46L256.66 5.46L256.56 4.87Q256.76 4.87 257.11 4.97Q257.46 5.07 257.82 5.21Q258.17 5.35 258.45 5.49Q258.72 5.64 258.75 5.74L258.75 5.74Q258.68 6.08 258.64 6.76Q258.59 7.43 258.59 8.20L258.59 8.20Q258.59 9.73 258.71 11.19Q258.83 12.66 259.27 14.17L259.27 14.17Q259.49 13.05 259.75 11.94Q260.01 10.82 260.29 9.81Q260.57 8.79 260.85 7.92Q261.13 7.06 261.39 6.40Q261.65 5.75 261.87 5.38Q262.09 5.01 262.28 4.98L262.28 4.98Q262.43 5.01 262.61 5.10Q262.79 5.19 262.96 5.32Q263.13 5.45 263.27 5.60Q263.41 5.75 263.49 5.91L263.49 5.91Q263.05 6.09 262.61 6.76Q262.16 7.43 261.76 8.39Q261.37 9.35 261.02 10.47Q260.68 11.59 260.42 12.68Q260.16 13.76 260.01 14.69Q259.87 15.61 259.85 16.17L259.85 16.17Q259.85 16.20 259.87 16.21L259.87 16.21Q259.83 16.23 259.78 16.23Q259.73 16.23 259.69 16.23L259.69 16.23Q259.04 16.23 258.55 16.07Q258.05 15.90 257.89 15.61L257.89 15.61Q257.60 14.43 257.40 13.34Q257.21 12.25 257.07 11.16Q256.94 10.07 256.87 8.95Q256.79 7.84 256.75 6.62L256.75 6.62Q256.48 7.04 256.19 7.72Q255.89 8.40 255.61 9.21Q255.33 10.02 255.07 10.92Q254.81 11.82 254.62 12.67Q254.42 13.52 254.31 14.29Q254.20 15.05 254.20 15.61L254.20 15.61Q254.20 15.90 254.21 16.03Q254.21 16.16 254.24 16.24ZM277.31 10.72L277.31 10.72Q277.68 10.72 277.89 10.98Q278.10 11.23 278.10 11.68L278.10 11.68Q278.10 11.79 278.08 11.91Q278.07 12.03 278.04 12.11L278.04 12.11Q277.75 12.04 277.40 12.03L277.40 12.03Q277.31 12.64 276.95 13.32Q276.58 14 276.07 14.60Q275.55 15.19 274.93 15.64Q274.32 16.09 273.71 16.24L273.71 16.24Q271.84 16.20 270.98 15.27Q270.12 14.34 270.12 12.36L270.12 12.36Q270.12 10.92 270.65 9.57Q271.18 8.22 272.06 7.17Q272.94 6.12 274.08 5.48Q275.23 4.84 276.46 4.84L276.46 4.84Q277.42 4.84 277.96 5.25Q278.50 5.66 278.50 6.40L278.50 6.40Q278.50 6.89 278.27 7.31Q278.04 7.73 277.51 8.22L277.51 8.22Q277.19 8.12 276.95 7.88Q276.71 7.63 276.65 7.31L276.65 7.31Q277.13 6.96 277.33 6.66Q277.52 6.37 277.52 5.96L277.52 5.96Q277.52 5.32 276.75 5.32L276.75 5.32Q276.12 5.32 275.40 5.79Q274.68 6.26 273.95 7.14L273.95 7.14Q272.92 8.39 272.44 9.71Q271.96 11.03 271.96 12.68L271.96 12.68Q271.96 13.30 272.09 13.80Q272.22 14.31 272.43 14.69Q272.64 15.06 272.92 15.29Q273.21 15.51 273.55 15.54L273.55 15.54Q273.99 15.44 274.44 15.09Q274.89 14.73 275.26 14.25Q275.63 13.76 275.89 13.21Q276.15 12.66 276.21 12.15L276.21 12.15Q275.81 12.24 275.46 12.31Q275.10 12.39 274.78 12.39L274.78 12.39Q274.36 12.39 274.04 12.18Q273.73 11.97 273.62 11.61L273.62 11.61Q273.87 11.47 274.35 11.31Q274.83 11.16 275.38 11.03Q275.93 10.89 276.45 10.81Q276.98 10.72 277.31 10.72Z" transform="matrix(0.5485500310333904,0,0,0.5485500310333904,73.54857949117805,250.55396858069537)"/></g></svg>