<svg xmlns="http://www.w3.org/2000/svg" class="font" viewBox="0 0 163.514 60"><g id="be887a6f-c333-4592-b6a6-3f867223a207" fill="#fff"><path d="M3.49 7.57L3.49 1.94L5.37 1.94L5.37 5.15L5.18 5.15L5.18 8.65L5.37 8.65L5.37 11.46L0.86 11.46L0.86 10.86L0 10.86L0 9.75L0.52 9.75L0.52 9.56L0 9.56L0 9.31L1.85 9.31L1.85 9.99L3.51 9.99L3.51 9.05Q3.51 8.57 3.49 7.72L3.49 7.72L2.04 7.72L2.04 7.57L3.49 7.57ZM4.06 7.57L3.51 7.57L3.51 7.72L4.06 7.72L4.06 7.57ZM1.90 11.73L1.90 11.60L4.30 11.60L4.30 11.73L1.90 11.73ZM9.52 1.95L9.52 1.95Q11.62 1.95 12.28 3.42L12.28 3.42Q12.66 4.14 12.66 6.19L12.66 6.19L12.66 6.23L11.94 6.23L11.94 6.56L12.66 6.56L12.66 10.10L12.18 10.10L12.18 11.37L11.23 11.37L11.23 11.73L7.91 11.73L7.91 11.37L7.51 11.37L7.51 10.10L6.65 10.10L6.65 9.10L7.16 9.10L7.16 8.57L6.65 8.57L6.65 9.10L5.44 9.10L5.44 8.57L6.36 8.57Q6.34 7.38 6.34 6.74L6.34 6.74L6.34 5.91Q6.34 3.58 7.13 2.80L7.13 2.80Q7.85 1.95 9.52 1.95ZM8.32 5.32L8.32 5.32L8.34 5.32L8.32 5.35L8.32 6.23L7.59 6.23L7.59 6.56L8.32 6.56Q8.31 8.67 8.31 9.75L8.31 9.75L8.31 10.10L9.94 10.10L9.94 9.56L10.69 9.56L10.69 9.54Q10.69 8.54 10.68 6.75L10.68 6.75Q10.68 6.68 10.69 6.38L10.69 6.38Q10.69 4.45 10.47 4.01L10.47 4.01Q10.23 3.58 9.61 3.58L9.61 3.58L9.37 3.58Q8.63 3.58 8.45 4.24L8.45 4.24Q8.37 4.56 8.32 5.32ZM12.66 6.56L12.66 6.23L13.84 6.23L13.84 6.56L12.66 6.56ZM13.75 2.02L13.75 2.02L16.51 2.02Q18.35 2.02 18.85 2.95L18.85 2.95Q19.13 3.44 19.13 4.28L19.13 4.28L19.13 4.96Q19.13 5.91 18.31 6.50L18.31 6.50Q18.59 6.55 19.02 6.93L19.02 6.93L19.24 6.93Q19.64 7.36 19.76 7.75L19.76 7.75Q19.80 7.88 19.80 7.90L19.80 7.90L20.06 7.90L20.06 8.06L19.18 8.06L19.18 7.90L17.38 7.90L17.38 7.38L15.60 7.38L15.60 10.21L16.71 10.21L16.71 10.01L17.38 10.01L17.38 8.06L19.18 8.06L19.18 9.78L19.38 9.78L19.38 10.85L18.79 10.85L18.79 11.10L19.38 11.10L19.38 11.55L17.09 11.55L17.09 11.73L14.59 11.73L14.59 11.55L14.04 11.55L14.04 10.06L14.79 10.06L14.79 9.66L14.04 9.66Q14.02 8.52 14.02 7.96L14.02 7.96L14.02 7.25L13.39 7.25L13.39 7.07L14.02 7.07L14.02 6.69L13.73 6.69L13.73 2.06Q13.73 2.02 13.75 2.02ZM15.95 3.66L15.63 3.66L15.63 6.07L16.04 6.07Q16.78 6.07 17.01 5.82L17.01 5.82Q17.24 5.63 17.24 4.76L17.24 4.76L17.24 4.72Q17.24 3.99 17.01 3.83L17.01 3.83Q16.86 3.66 15.95 3.66L15.95 3.66ZM14.94 7.07L14.04 7.07L14.04 7.25L14.94 7.25L14.94 7.07ZM16.46 8.06L16.46 7.90L17.38 7.90L17.38 8.06L16.46 8.06ZM23.52 1.96L23.52 1.96Q25.15 1.96 25.70 3.01L25.70 3.01Q26.09 3.80 26.09 4.56L26.09 4.56L26.07 4.56Q24.96 4.66 24.55 4.66L24.55 4.66Q24.55 4.12 24.21 3.75L24.21 3.75Q23.90 3.57 23.63 3.57L23.63 3.57L23.36 3.57Q22.66 3.57 22.51 4.11L22.51 4.11Q22.48 4.27 22.48 4.35L22.48 4.35L22.48 4.50Q22.48 5.26 23.28 5.61L23.28 5.61Q23.35 5.67 24.40 6.12L24.40 6.12Q24.96 6.38 25.44 6.76L25.44 6.76L25.44 6.77L23.73 6.77L23.73 6.97L25.99 6.97L25.99 7.24L26.28 7.24L26.28 10.21L25.72 10.21L25.72 11.73L21.37 11.73L21.37 10.21L20.34 10.21L20.34 9.18L20.92 9.18L20.92 8.83L20.34 8.83L20.34 8.59L22.33 8.59L22.33 10.21L24.37 10.21L24.37 7.77L22.85 7.77L22.85 6.97L20.95 6.97L20.95 6.77L21.87 6.77L21.87 6.76Q20.67 5.96 20.67 4.50L20.67 4.50L20.67 4.37Q20.67 3.14 21.42 2.51L21.42 2.51Q22.10 1.96 23.52 1.96ZM25.99 6.97L25.99 6.77L26.68 6.77L26.68 6.97L25.99 6.97ZM19.69 9.18L19.69 8.83L20.34 8.83L20.34 9.18L19.69 9.18Z" transform="matrix(6.1287033788129195,0,0,6.1287033788129195,-0.0000032211767546641568,-11.889684428747124)"/></g></svg>